<svg xmlns="http://www.w3.org/2000/svg" width="1105" height="600"><rect width="1105" height="600" x="0" y="0" fill="#FFFFFF" id="backgorund"/><g transform="translate(70,22)" id="viz"><g id="links"><path d="M0,275.5C267.5,275.5,267.5,28.973086903483257,535,28.973086903483257" fill="none" stroke="#ccc"/><path d="M0,275.5C267.5,275.5,267.5,94.07353768551928,535,94.07353768551928" fill="none" stroke="#ccc"/><path d="M0,275.5C267.5,275.5,267.5,155.80016900876717,535,155.80016900876717" fill="none" stroke="#ccc"/><path d="M0,275.5C267.5,275.5,267.5,213.16057577427287,535,213.16057577427287" fill="none" stroke="#ccc"/><path d="M0,275.5C267.5,275.5,267.5,266.6749666361836,535,266.6749666361836" fill="none" stroke="#ccc"/><path d="M0,275.5C267.5,275.5,267.5,319.99611207366564,535,319.99611207366564" fill="none" stroke="#ccc"/><path d="M0,275.5C267.5,275.5,267.5,372.49160475126024,535,372.49160475126024" fill="none" stroke="#ccc"/><path d="M0,275.5C267.5,275.5,267.5,423.8386313800361,535,423.8386313800361" fill="none" stroke="#ccc"/><path d="M0,275.5C267.5,275.5,267.5,473.6559427103163,535,473.6559427103163" fill="none" stroke="#ccc"/><path d="M0,275.5C267.5,275.5,267.5,522.0269130965168,535,522.0269130965168" fill="none" stroke="#ccc"/></g><g id="nodes"><g transform="translate(0,275.5)"><circle fill="#ccc" r="5"/><text text-anchor="end" dominant-baseline="text-before-edge" transform="translate(0,0)"><tspan x="-8" y="0" dy="0" style="font-family: Arial, sans-serif; font-size: 10px; fill: black; font-weight: normal;"/></text></g><g id="Family Animation" transform="translate(535,28.973086903483257)"><circle fill="rgb(158, 1, 66)" r="12.5"/><text text-anchor="start" dominant-baseline="text-before-edge" transform="translate(0,-5.59375)"><tspan x="14.5" y="0" dy="0" style="font-family: Arial, sans-serif; font-size: 10px; fill: black; font-weight: bold;">2013,2014,2015,2016,2017</tspan></text></g><g id="Comedy" transform="translate(535,94.07353768551928)"><circle fill="rgb(248, 142, 83)" r="9.462118179391512"/><text text-anchor="start" dominant-baseline="text-before-edge" transform="translate(0,-5.59375)"><tspan x="11.462118179391512" y="0" dy="0" style="font-family: Arial, sans-serif; font-size: 10px; fill: black; font-weight: bold;">2013,2014,2015,2016,2017</tspan></text></g><g id="Drama" transform="translate(535,155.80016900876717)"><circle fill="rgb(137, 207, 165)" r="8.82665166494776"/><text text-anchor="start" dominant-baseline="text-before-edge" transform="translate(0,-5.59375)"><tspan x="10.82665166494776" y="0" dy="0" style="font-family: Arial, sans-serif; font-size: 10px; fill: black; font-weight: bold;">2013,2014,2015,2016,2017</tspan></text></g><g id="Talk Show" transform="translate(535,213.16057577427287)"><circle fill="rgb(94, 79, 162)" r="4.708258672218202"/><text text-anchor="start" dominant-baseline="text-before-edge" transform="translate(0,-5.59375)"><tspan x="6.708258672218202" y="0" dy="0" style="font-family: Arial, sans-serif; font-size: 10px; fill: black; font-weight: bold;">2016,2017</tspan></text></g><g id="Docu-Series" transform="translate(535,266.6749666361836)"><circle fill="rgb(213, 238, 159)" r="4.639185118907534"/><text text-anchor="start" dominant-baseline="text-before-edge" transform="translate(0,-5.59375)"><tspan x="6.639185118907534" y="0" dy="0" style="font-family: Arial, sans-serif; font-size: 10px; fill: black; font-weight: bold;">2015,2016,2017</tspan></text></g><g id="Foreign Language" transform="translate(535,319.99611207366564)"><circle fill="rgb(254, 210, 129)" r="4.497856851150726"/><text text-anchor="start" dominant-baseline="text-before-edge" transform="translate(0,-5.59375)"><tspan x="6.497856851150726" y="0" dy="0" style="font-family: Arial, sans-serif; font-size: 10px; fill: black; font-weight: bold;">2015,2016,2017</tspan></text></g><g id="Marvel" transform="translate(535,372.49160475126024)"><circle fill="rgb(251, 248, 176)" r="3.740230617070359"/><text text-anchor="start" dominant-baseline="text-before-edge" transform="translate(0,-5.59375)"><tspan x="5.74023061707036" y="0" dy="0" style="font-family: Arial, sans-serif; font-size: 10px; fill: black; font-weight: bold;">2015,2016,2017</tspan></text></g><g id="Family Live Action" transform="translate(535,423.8386313800361)"><circle fill="rgb(70, 150, 179)" r="3.247429583235274"/><text text-anchor="start" dominant-baseline="text-before-edge" transform="translate(0,-5.59375)"><tspan x="5.247429583235274" y="0" dy="0" style="font-family: Arial, sans-serif; font-size: 10px; fill: black; font-weight: bold;">2015,2017</tspan></text></g><g id="Reality" transform="translate(535,473.6559427103163)"><circle fill="rgb(219, 73, 74)" r="2.0747066572165385"/><text text-anchor="start" dominant-baseline="text-before-edge" transform="translate(0,-5.59375)"><tspan x="4.074706657216538" y="0" dy="0" style="font-family: Arial, sans-serif; font-size: 10px; fill: black; font-weight: bold;">2016,2017</tspan></text></g><g id="Animation" transform="translate(535,522.0269130965168)"><circle fill="rgb(158, 1, 66)" r="1.6726819822590617"/><text text-anchor="start" dominant-baseline="text-before-edge" transform="translate(0,-5.59375)"><tspan x="3.6726819822590615" y="0" dy="0" style="font-family: Arial, sans-serif; font-size: 10px; fill: black; font-weight: bold;">2014</tspan></text></g></g></g><g id="legend" transform="translate(805,22)"><g transform="translate(5,0)"><g class="legendSize" transform="translate(0,0)"><g class="legendCells" transform="translate(12.5,15.734375)"><g class="cell" transform="translate(0, 0)"><circle class="swatch" r="0" fill="none" stroke="#ccc"/><text class="label" transform="translate( 17.5,
          5)" font-family="&quot;Arial&quot;, sans-serif" font-size="10px"><tspan x="0" dy="0em">0.0</tspan></text></g><g class="cell" transform="translate(0, 28.234375)"><circle class="swatch" r="12.5" fill="none" stroke="#ccc"/><text class="label" transform="translate( 17.5,
          5)" font-family="&quot;Arial&quot;, sans-serif" font-size="10px"><tspan x="0" dy="0em">726.0</tspan></text></g></g><text class="legendTitle" font-family="&quot;Arial&quot;, sans-serif" font-size="12px" font-weight="bold"><tspan x="0" dy="0em">Episodes</tspan></text></g><g class="legendColor" transform="translate(0,89.0625)"><g class="legendCells" transform="translate(0,15.734375)"><g class="cell" transform="translate(0, 0)"><rect class="swatch" height="15" width="15" style="fill: rgb(158, 1, 66);"/><text class="label" transform="translate( 20, 12.5)" font-family="&quot;Arial&quot;, sans-serif" font-size="10px"><tspan x="0" dy="0em">Animation</tspan></text></g><g class="cell" transform="translate(0, 20.734375)"><rect class="swatch" height="15" width="15" style="fill: rgb(219, 73, 74);"/><text class="label" transform="translate( 20, 12.5)" font-family="&quot;Arial&quot;, sans-serif" font-size="10px"><tspan x="0" dy="0em">Celebrity,Competition</tspan></text></g><g class="cell" transform="translate(0, 41.46875)"><rect class="swatch" height="15" width="15" style="fill: rgb(248, 142, 83);"/><text class="label" transform="translate( 20, 12.5)" font-family="&quot;Arial&quot;, sans-serif" font-size="10px"><tspan x="0" dy="0em">Comedy,Docu-Series,Adult</tspan><tspan x="0" dy="1.2em">Animation,Mockumentary,Comedy-drama,Sketch</tspan><tspan x="0" dy="1.2em">comedy,Satirical comedy,Sitcom,Romantic</tspan><tspan x="0" dy="1.2em">comedy,Romantic comedy anthology</tspan><tspan x="0" dy="1.2em">series,Comedy-horror,Comic science</tspan><tspan x="0" dy="1.2em">fiction,Satire/Drama</tspan></text></g><g class="cell" transform="translate(0, 140.203125)"><rect class="swatch" height="15" width="15" style="fill: rgb(254, 210, 129);"/><text class="label" transform="translate( 20, 12.5)" font-family="&quot;Arial&quot;, sans-serif" font-size="10px"><tspan x="0" dy="0em">Comedy-drama,Political</tspan><tspan x="0" dy="1.2em">drama,Drama,Science fiction,Period drama</tspan></text></g><g class="cell" transform="translate(0, 176.546875)"><rect class="swatch" height="15" width="15" style="fill: rgb(251, 248, 176);"/><text class="label" transform="translate( 20, 12.5)" font-family="&quot;Arial&quot;, sans-serif" font-size="10px"><tspan x="0" dy="0em">Crime drama/legal</tspan><tspan x="0" dy="1.2em">drama,Neo-noir/psychological</tspan><tspan x="0" dy="1.2em">thriller,Neo-blaxploitation,Martial</tspan><tspan x="0" dy="1.2em">arts/mystery fiction</tspan></text></g><g class="cell" transform="translate(0, 244.09375)"><rect class="swatch" height="15" width="15" style="fill: rgb(213, 238, 159);"/><text class="label" transform="translate( 20, 12.5)" font-family="&quot;Arial&quot;, sans-serif" font-size="10px"><tspan x="0" dy="0em">Culinary art,Crime</tspan><tspan x="0" dy="1.2em">drama,Comedy,Sport,Historical</tspan><tspan x="0" dy="1.2em">drama,Science investigation,Documentary</tspan></text></g><g class="cell" transform="translate(0, 296.03125)"><rect class="swatch" height="15" width="15" style="fill: rgb(137, 207, 165);"/><text class="label" transform="translate( 20, 12.5)" font-family="&quot;Arial&quot;, sans-serif" font-size="10px"><tspan x="0" dy="0em">Political</tspan><tspan x="0" dy="1.2em">drama,Horror/thriller,Comedy-drama,Historical</tspan><tspan x="0" dy="1.2em">drama,Crime drama,Thriller,Science</tspan><tspan x="0" dy="1.2em">fiction,Science fiction/horror,Musical</tspan><tspan x="0" dy="1.2em">drama,Mystery,Family drama,Science</tspan><tspan x="0" dy="1.2em">fictionanthology series,Black-comedy</tspan><tspan x="0" dy="1.2em">mystery,Teen drama/mystery,Period drama</tspan></text></g><g class="cell" transform="translate(0, 410.375)"><rect class="swatch" height="15" width="15" style="fill: rgb(70, 150, 179);"/><text class="label" transform="translate( 20, 12.5)" font-family="&quot;Arial&quot;, sans-serif" font-size="10px"><tspan x="0" dy="0em">Sitcom,Comedy/educational,Educational</tspan></text></g><g class="cell" transform="translate(0, 431.109375)"><rect class="swatch" height="15" width="15" style="fill: rgb(94, 79, 162);"/><text class="label" transform="translate( 20, 12.5)" font-family="&quot;Arial&quot;, sans-serif" font-size="10px"><tspan x="0" dy="0em">Talk Show</tspan></text></g></g><text class="legendTitle" font-family="&quot;Arial&quot;, sans-serif" font-size="12px" font-weight="bold"><tspan x="0" dy="0em">Subgenre</tspan></text></g></g></g></svg>